# xmcd CD database file
#
# Track frame offsets:
#	150
#	22670
#	42475
#	55430
#	73827
#	100442
#	118012
#	137600
#	154157
#	175750
#	187527
#	202737
#
# Disc length: 2895 seconds
#
# Revision: 1
# Processed by: cddbd v1.4PL0 Copyright (c) Steve Scherf et al.
# Submitted via: CDex 1.50beta8
#
DISCID=9b0b4d0c
DTITLE=Arthur Verocai - Saudade Demais
DYEAR=1900
DGENRE=Jazz
TTITLE0=Verão à Toa
TTITLE1=Isabel Tchau
TTITLE2=Madrugada
TTITLE3=Sem Thereza
TTITLE4=Balada
TTITLE5=Seja Feliz
TTITLE6=Posto 6
TTITLE7=Esse Rio
TTITLE8=Saudade Demais
TTITLE9=Guanabara
TTITLE10=Nós Cariocas
TTITLE11=Um Novo Rumo
EXTD=
EXTT0=
EXTT1=
EXTT2=
EXTT3=
EXTT4=
EXTT5=
EXTT6=
EXTT7=
EXTT8=
EXTT9=
EXTT10=
EXTT11=
PLAYORDER=
